<svg xmlns="http://www.w3.org/2000/svg" xmlns:xlink="http://www.w3.org/1999/xlink" viewBox="0 0 144 108"><defs><style>.cls-1{fill:url(#linear-gradient);}</style><linearGradient id="linear-gradient" y1="54" x2="144" y2="54" gradientUnits="userSpaceOnUse"><stop offset="0" stop-color="#47d9ce"/><stop offset="1" stop-color="#47c772"/></linearGradient></defs><title>Asset 1</title><g id="Layer_2" data-name="Layer 2"><g id="Layer_1-2" data-name="Layer 1"><path class="cls-1" d="M90,0H54A54,54,0,0,0,0,54v46.19A7.81,7.81,0,0,0,7.81,108H90a54,54,0,0,0,54-54h0A54,54,0,0,0,90,0ZM54,90A36,36,0,1,1,90,54,36,36,0,0,1,54,90Zm36,0a36.94,36.94,0,0,1-4.49-.29,43.2,43.2,0,0,0,0-71.42A36.94,36.94,0,0,1,90,18a36,36,0,0,1,0,72Z"/></g></g></svg>