<?xml version="1.0" standalone="no"?>
<!DOCTYPE svg PUBLIC "-//W3C//DTD SVG 20010904//EN"
 "http://www.w3.org/TR/2001/REC-SVG-20010904/DTD/svg10.dtd">
<svg version="1.0" xmlns="http://www.w3.org/2000/svg"
 width="1152.000000pt" height="1152.000000pt" viewBox="0 0 1152.000000 1152.000000"
 preserveAspectRatio="xMidYMid meet">
<metadata>
Created by potrace 1.11, written by Peter Selinger 2001-2013
</metadata>
<g transform="translate(0.000000,1152.000000) scale(0.100000,-0.100000)"
fill="#000000" stroke="none">
<path d="M4079 10076 c-2 -2 -42 -7 -89 -10 -115 -9 -168 -14 -215 -20 -22 -3
-62 -8 -90 -12 -27 -3 -53 -8 -57 -10 -4 -3 -24 -7 -45 -9 -50 -5 -138 -21
-138 -25 0 -1 -11 -3 -25 -4 -14 -2 -35 -6 -47 -10 -12 -4 -30 -8 -40 -10 -10
-2 -38 -9 -63 -16 -25 -7 -52 -13 -61 -15 -37 -7 -236 -69 -326 -102 -54 -19
-104 -35 -110 -36 -7 0 -13 -4 -13 -9 0 -4 -9 -8 -20 -8 -11 0 -20 -4 -20 -8
0 -4 -8 -8 -17 -9 -21 -2 -203 -81 -218 -94 -5 -5 -17 -9 -26 -9 -10 0 -19 -5
-21 -11 -2 -5 -10 -11 -18 -13 -20 -4 -54 -18 -60 -25 -3 -3 -25 -16 -50 -28
-73 -36 -194 -104 -211 -119 -8 -8 -19 -14 -22 -14 -4 0 -60 -35 -124 -77 -64
-43 -123 -82 -132 -88 -8 -5 -20 -14 -27 -20 -6 -5 -22 -17 -34 -25 -31 -21
-125 -94 -143 -111 -8 -8 -30 -25 -48 -39 -19 -14 -46 -37 -62 -52 -16 -15
-46 -41 -68 -59 -85 -69 -328 -320 -425 -439 -16 -19 -31 -37 -34 -40 -3 -3
-39 -48 -80 -102 -211 -272 -412 -612 -542 -918 -56 -130 -60 -140 -65 -164
-2 -11 -7 -24 -12 -30 -7 -9 -29 -68 -36 -96 -1 -3 -5 -14 -9 -25 -29 -75 -34
-93 -29 -99 4 -3 2 -6 -4 -6 -5 0 -10 -6 -10 -12 0 -7 -15 -62 -32 -123 -17
-60 -34 -122 -36 -137 -3 -15 -10 -40 -16 -55 -6 -15 -10 -29 -9 -31 1 -2 -10
-70 -15 -92 -1 -3 -5 -25 -9 -50 -5 -25 -10 -54 -12 -65 -3 -11 -7 -36 -9 -55
-3 -19 -8 -44 -10 -55 -4 -19 -12 -85 -21 -175 -2 -19 -7 -57 -10 -85 -4 -27
-8 -970 -10 -2095 -4 -1999 -3 -2047 16 -2118 10 -40 36 -104 56 -142 36 -70
148 -200 172 -200 6 0 12 -4 12 -9 0 -15 133 -79 210 -100 l75 -21 3490 3
c1920 2 3508 6 3530 9 22 3 65 9 95 12 30 4 71 9 91 12 20 2 54 7 75 10 42 5
176 29 284 51 46 9 50 10 53 12 1 2 13 4 27 7 21 3 40 8 83 19 4 2 8 3 10 4 1
2 13 5 27 8 38 7 55 11 58 13 1 2 5 3 10 4 44 12 100 28 112 33 8 3 20 7 25 9
15 3 107 34 125 41 8 4 17 7 20 8 11 2 127 46 145 55 57 26 115 50 120 50 14
0 436 213 460 233 6 4 52 33 102 65 100 62 311 207 355 244 15 13 42 34 59 48
55 42 124 102 127 111 2 5 10 9 18 9 8 0 14 4 14 9 0 5 19 23 42 40 23 17 39
31 35 31 -4 0 9 15 29 33 94 81 266 265 364 387 19 24 43 51 53 62 9 10 17 20
17 23 0 3 9 16 21 28 79 85 354 518 410 644 7 18 17 33 21 33 5 0 8 6 8 13 0
6 16 46 36 87 21 41 40 82 45 91 26 55 118 285 126 314 1 6 12 37 23 70 24 65
78 247 86 282 2 12 9 34 14 48 5 14 8 25 5 25 -2 0 2 21 10 48 8 26 16 61 19
77 2 17 5 30 6 30 2 0 7 24 15 75 4 24 8 47 10 50 2 3 6 29 10 59 4 30 8 63
11 74 2 10 6 45 9 76 4 31 8 67 11 81 19 117 26 609 11 790 -10 127 -17 192
-22 225 -3 17 -8 48 -11 70 -3 22 -10 65 -15 95 -6 30 -12 66 -14 80 -3 21
-38 185 -50 230 -19 79 -47 179 -54 195 -5 11 -9 27 -9 35 0 18 -77 237 -92
262 -5 10 -10 26 -10 36 0 10 -4 22 -8 27 -5 6 -28 58 -52 118 -24 59 -48 107
-53 107 -6 0 -8 3 -4 6 6 7 -84 189 -154 312 -27 46 -49 88 -49 93 0 5 -4 9
-10 9 -5 0 -10 5 -10 10 0 9 -130 213 -162 255 -4 6 -40 53 -80 105 -199 263
-402 479 -638 680 -14 12 -39 34 -55 48 -17 15 -48 40 -70 57 -22 16 -41 33
-43 37 -2 4 -10 8 -18 8 -8 0 -14 4 -14 8 0 5 -26 26 -57 48 -32 21 -60 41
-63 44 -15 16 -100 70 -109 70 -6 0 -11 3 -11 8 0 4 -26 23 -57 41 -32 19 -60
37 -63 41 -3 4 -12 9 -20 13 -8 3 -42 22 -75 42 -33 19 -77 43 -97 52 -21 10
-38 21 -38 25 0 5 -4 8 -9 8 -4 0 -69 29 -142 64 -74 35 -170 78 -214 95 -44
18 -93 38 -110 46 -39 17 -110 39 -111 34 0 -2 -7 1 -15 7 -8 6 -45 21 -84 33
-38 12 -77 25 -85 28 -8 3 -22 7 -30 8 -8 1 -40 10 -71 19 -31 9 -65 18 -75
21 -11 2 -57 13 -104 24 -111 26 -134 31 -285 57 -55 9 -113 18 -130 19 -108
10 -175 17 -210 22 -43 7 -3459 15 -3466 9z m271 -1436 c8 5 18 6 23 3 5 -3
51 -7 103 -8 86 -3 153 -9 224 -20 14 -2 43 -6 65 -10 23 -3 52 -8 65 -10 14
-3 39 -8 55 -11 17 -3 48 -9 70 -15 22 -5 51 -12 65 -15 14 -3 50 -12 80 -21
30 -9 60 -18 65 -19 20 -4 191 -66 220 -79 17 -7 42 -17 58 -20 15 -4 27 -11
27 -16 0 -5 6 -9 14 -9 37 0 443 -225 454 -252 2 -4 8 -8 13 -8 6 0 47 -28 91
-62 44 -35 92 -72 107 -83 45 -34 102 -87 206 -190 92 -92 134 -139 212 -235
15 -19 31 -36 36 -38 4 -2 7 -10 7 -17 0 -7 4 -15 8 -17 39 -15 345 -532 326
-551 -2 -2 2 -10 11 -17 8 -7 15 -19 15 -26 0 -8 9 -33 19 -57 17 -38 54 -134
57 -147 0 -3 3 -12 7 -20 26 -69 94 -336 101 -400 2 -19 6 -42 9 -50 5 -14 10
-56 25 -200 9 -94 8 -453 -2 -535 -4 -38 -10 -86 -11 -105 -2 -19 -6 -51 -10
-70 -4 -19 -8 -46 -10 -60 -2 -14 -11 -57 -20 -95 -9 -39 -19 -81 -21 -95 -3
-14 -17 -63 -31 -110 -15 -47 -27 -91 -29 -97 -3 -18 -53 -150 -75 -198 -10
-23 -19 -47 -21 -55 -2 -8 -5 -17 -8 -20 -10 -10 -54 -105 -52 -112 1 -5 -3
-8 -10 -8 -6 0 -9 -3 -5 -6 9 -9 -183 -327 -235 -389 -5 -5 -27 -34 -48 -63
-106 -144 -428 -470 -484 -491 -6 -2 -15 -10 -21 -16 -30 -35 -218 -162 -361
-243 -78 -44 -319 -163 -334 -164 -7 -1 -36 -12 -85 -33 -22 -9 -49 -18 -59
-21 -10 -2 -35 -8 -55 -14 -47 -15 -55 -17 -63 -19 -4 -1 -26 -8 -48 -16 -22
-8 -40 -12 -40 -9 0 2 -8 0 -17 -5 -10 -5 -31 -11 -48 -14 -29 -6 -50 -10
-110 -23 -16 -4 -39 -8 -50 -10 -11 -2 -36 -6 -55 -9 -19 -3 -53 -8 -74 -10
-21 -2 -55 -7 -75 -10 -20 -3 -80 -7 -133 -9 -54 -3 -102 -8 -108 -11 -5 -3
-10 -3 -10 2 0 4 -13 8 -30 8 -16 0 -30 -4 -30 -8 0 -5 -5 -5 -10 -2 -6 4 -59
8 -118 10 -59 2 -127 6 -152 9 -69 9 -122 17 -155 22 -34 6 -66 11 -110 18
-16 3 -50 10 -75 16 -25 6 -56 14 -70 17 -41 8 -221 63 -280 85 -60 22 -67 25
-150 59 -84 36 -295 142 -298 151 -2 4 -8 8 -12 8 -5 0 -46 24 -92 53 -265
167 -516 390 -715 637 -15 19 -31 37 -35 38 -5 2 -8 10 -8 17 0 7 -4 15 -8 17
-18 7 -198 277 -202 303 -1 6 -7 17 -14 25 -13 15 -115 215 -116 225 0 3 -6
18 -14 34 -9 16 -12 31 -9 35 4 3 1 6 -5 6 -7 0 -12 8 -12 18 0 10 -5 23 -12
30 -7 7 -8 12 -4 12 5 0 4 6 -1 13 -8 9 -31 67 -38 97 -1 3 -4 12 -8 20 -7 20
-37 121 -41 140 -2 8 -6 22 -9 30 -9 24 -38 152 -43 185 -2 17 -8 53 -13 80
-6 28 -13 68 -15 90 -3 22 -8 60 -11 85 -3 25 -8 88 -10 140 -2 52 -5 97 -6
100 -1 3 0 10 1 15 5 23 2 103 -4 114 -4 6 -4 11 1 11 4 0 8 26 8 58 0 55 4
105 21 237 4 33 8 70 8 83 1 12 5 22 9 22 5 0 6 3 4 8 -3 4 4 48 14 97 11 50
21 99 24 110 2 11 4 21 4 23 1 1 1 4 1 7 1 3 7 23 15 45 8 22 15 44 16 48 2
10 5 18 25 82 69 224 250 586 377 755 17 23 39 53 47 65 8 12 20 28 25 34 6 6
28 34 50 61 109 137 359 384 447 443 13 8 28 20 33 26 6 6 18 16 26 21 59 36
119 81 119 87 0 5 5 8 11 8 6 0 25 10 42 23 40 28 65 43 97 57 13 6 27 15 30
19 6 10 290 151 290 145 0 -2 11 3 24 12 14 8 27 15 31 15 3 -1 22 6 43 14 20
9 73 28 117 41 44 14 87 28 95 31 8 3 20 7 25 8 6 2 30 8 55 15 25 7 53 14 63
16 10 2 27 6 37 9 10 3 29 8 42 10 13 3 34 7 48 10 49 10 76 15 120 21 25 3
56 7 70 9 69 11 134 17 228 20 57 1 106 5 109 8 3 3 15 2 27 -3 13 -4 29 -4
36 0z m2813 -3 c17 1 43 2 57 3 36 2 227 -8 280 -15 25 -3 65 -8 90 -11 25 -2
52 -7 60 -9 8 -2 35 -7 60 -10 25 -3 90 -17 144 -31 55 -13 106 -26 115 -28
40 -7 252 -79 257 -87 3 -5 12 -9 20 -9 38 0 351 -152 436 -211 14 -11 31 -19
37 -19 6 0 11 -4 11 -10 0 -5 5 -10 10 -10 12 0 73 -41 78 -52 2 -5 8 -8 13
-8 13 0 156 -108 244 -184 92 -80 237 -225 305 -306 30 -35 60 -70 65 -76 129
-151 342 -508 415 -699 4 -11 15 -36 23 -55 19 -45 86 -246 91 -277 3 -12 7
-26 9 -30 3 -5 8 -24 11 -43 3 -19 10 -51 16 -70 6 -19 13 -51 16 -70 2 -19 9
-55 14 -80 5 -25 12 -65 14 -90 3 -25 8 -65 11 -90 5 -39 16 -237 15 -280 0
-13 0 -36 1 -85 1 -27 -11 -196 -16 -235 -4 -25 -8 -61 -10 -80 -2 -19 -7 -51
-10 -70 -4 -19 -8 -44 -9 -55 -20 -144 -109 -447 -181 -610 -14 -32 -26 -67
-26 -75 -1 -3 -5 -10 -10 -16 -5 -6 -32 -56 -59 -110 -27 -55 -55 -108 -62
-119 -7 -11 -25 -39 -40 -63 -16 -24 -28 -47 -28 -53 0 -5 -4 -9 -10 -9 -5 0
-10 -4 -10 -10 0 -17 -99 -153 -199 -275 -112 -135 -308 -325 -446 -431 -80
-62 -185 -134 -195 -134 -6 0 -10 -4 -10 -10 0 -5 -4 -10 -9 -10 -6 0 -30 -14
-54 -30 -47 -32 -277 -151 -362 -188 -170 -73 -429 -152 -590 -179 -40 -7 -60
-11 -60 -13 0 -1 -13 -3 -30 -5 -16 -1 -48 -5 -70 -8 -85 -12 -149 -19 -220
-22 -40 -1 -77 -5 -82 -8 -5 -3 -15 -2 -23 3 -7 4 -24 4 -37 -1 -12 -5 -23 -5
-23 -1 0 4 -48 7 -108 8 -99 1 -233 12 -240 19 -2 2 8 11 23 22 68 48 233 177
293 229 98 86 280 269 341 344 29 36 58 70 65 75 6 6 23 26 36 45 13 19 27 37
30 40 15 14 90 120 90 129 0 5 4 11 8 13 15 6 131 190 170 268 9 19 20 37 23
40 13 12 77 148 72 154 -4 3 -2 6 4 6 5 0 28 44 51 98 22 53 49 115 58 137 9
22 18 45 20 50 1 6 14 43 28 83 13 39 22 72 19 72 -3 0 -1 6 5 13 8 10 48 138
57 187 2 8 4 15 5 15 1 0 3 9 5 20 2 11 6 31 9 45 4 14 9 39 12 55 9 45 12 60
14 60 2 0 4 12 14 85 2 19 5 35 6 35 2 0 5 24 14 100 4 33 9 78 12 100 13 102
19 435 10 555 -5 67 -18 193 -21 211 -2 9 -6 38 -10 65 -6 53 -13 89 -15 89
-1 0 -3 16 -5 35 -4 52 -66 308 -86 360 -5 14 -11 34 -13 45 -6 28 -49 149
-99 275 -47 120 -189 406 -236 475 -17 25 -31 48 -31 51 0 9 -103 159 -112
162 -4 2 -8 8 -8 14 0 6 -10 22 -22 37 -13 15 -34 42 -48 61 -184 244 -464
517 -730 709 -33 24 -59 46 -56 48 4 5 56 9 185 17 40 3 76 8 79 11 4 3 8 3 9
-2 2 -5 18 -7 36 -6z"/>
</g>
</svg>
